solid /home/boris/Documents/modeleur/glassner/InterfaceBCIFS/src/PythonFiles/exp/AutoFrac/obj/hepta_star/iter1.stl
	facet normal	0	0	1
		outer loop
			vertex	1.53114	0.005198	0
			vertex	1.19771	0.22668	0
			vertex	1.13923	-0.195602	0
		endloop
	endfacet
	facet normal	0	0	1
		outer loop
			vertex	1.19771	0.22668	0
			vertex	0.817305	0.102796	0
			vertex	1.13923	-0.195602	0
		endloop
	endfacet
	facet normal	0	0	1
		outer loop
			vertex	0.817305	0.102796	0
			vertex	0.693998	-0.168865	0
			vertex	1.13923	-0.195602	0
		endloop
	endfacet
	facet normal	-0	0	1
		outer loop
			vertex	0.693998	-0.168865	0
			vertex	0.828033	-0.588524	0
			vertex	1.13923	-0.195602	0
		endloop
	endfacet
	facet normal	-0	-0	1
		outer loop
			vertex	0.828033	-0.588524	0
			vertex	1.33098	-0.657159	0
			vertex	1.13923	-0.195602	0
		endloop
	endfacet
	facet normal	0	-0	1
		outer loop
			vertex	1.33098	-0.657159	0
			vertex	1.57547	-0.289343	0
			vertex	1.13923	-0.195602	0
		endloop
	endfacet
	facet normal	0	0	1
		outer loop
			vertex	1.57547	-0.289343	0
			vertex	1.53114	0.005198	0
			vertex	1.13923	-0.195602	0
		endloop
	endfacet
	facet normal	0	0	1
		outer loop
			vertex	0.436896	-0.021087	0
			vertex	0.056489	-0.144971	0
			vertex	0.348207	-0.452715	0
		endloop
	endfacet
	facet normal	-0	0	1
		outer loop
			vertex	0.056489	-0.144971	0
			vertex	-0.085999	-0.520259	0
			vertex	0.348207	-0.452715	0
		endloop
	endfacet
	facet normal	-0	0	1
		outer loop
			vertex	-0.085999	-0.520259	0
			vertex	0.048327	-0.785221	0
			vertex	0.348207	-0.452715	0
		endloop
	endfacet
	facet normal	-0	-0	1
		outer loop
			vertex	0.048327	-0.785221	0
			vertex	0.459704	-0.940078	0
			vertex	0.348207	-0.452715	0
		endloop
	endfacet
	facet normal	0	-0	1
		outer loop
			vertex	0.459704	-0.940078	0
			vertex	0.828033	-0.588524	0
			vertex	0.348207	-0.452715	0
		endloop
	endfacet
	facet normal	0	0	1
		outer loop
			vertex	0.828033	-0.588524	0
			vertex	0.693998	-0.168865	0
			vertex	0.348207	-0.452715	0
		endloop
	endfacet
	facet normal	0	0	1
		outer loop
			vertex	0.693998	-0.168865	0
			vertex	0.436896	-0.021087	0
			vertex	0.348207	-0.452715	0
		endloop
	endfacet
	facet normal	-0	0	1
		outer loop
			vertex	-0.228487	-0.895548	0
			vertex	-0.370975	-1.27083	0
			vertex	0.052753	-1.2326	0
		endloop
	endfacet
	facet normal	-0	0	1
		outer loop
			vertex	-0.370975	-1.27083	0
			vertex	-0.166989	-1.6154	0
			vertex	0.052753	-1.2326	0
		endloop
	endfacet
	facet normal	-0	-0	1
		outer loop
			vertex	-0.166989	-1.6154	0
			vertex	0.124366	-1.67406	0
			vertex	0.052753	-1.2326	0
		endloop
	endfacet
	facet normal	0	-0	1
		outer loop
			vertex	0.124366	-1.67406	0
			vertex	0.503324	-1.44703	0
			vertex	0.052753	-1.2326	0
		endloop
	endfacet
	facet normal	0	0	1
		outer loop
			vertex	0.503324	-1.44703	0
			vertex	0.459704	-0.940078	0
			vertex	0.052753	-1.2326	0
		endloop
	endfacet
	facet normal	0	0	1
		outer loop
			vertex	0.459704	-0.940078	0
			vertex	0.048327	-0.785221	0
			vertex	0.052753	-1.2326	0
		endloop
	endfacet
	facet normal	0	0	1
		outer loop
			vertex	0.048327	-0.785221	0
			vertex	-0.228487	-0.895548	0
			vertex	0.052753	-1.2326	0
		endloop
	endfacet
	facet normal	-0	0	1
		outer loop
			vertex	0.036997	-1.95997	0
			vertex	0.240983	-2.30454	0
			vertex	0.476694	-1.94811	0
		endloop
	endfacet
	facet normal	-0	-0	1
		outer loop
			vertex	0.240983	-2.30454	0
			vertex	0.638149	-2.35806	0
			vertex	0.476694	-1.94811	0
		endloop
	endfacet
	facet normal	0	-0	1
		outer loop
			vertex	0.638149	-2.35806	0
			vertex	0.866566	-2.16564	0
			vertex	0.476694	-1.94811	0
		endloop
	endfacet
	facet normal	0	-0	1
		outer loop
			vertex	0.866566	-2.16564	0
			vertex	0.926471	-1.72749	0
			vertex	0.476694	-1.94811	0
		endloop
	endfacet
	facet normal	0	0	1
		outer loop
			vertex	0.926471	-1.72749	0
			vertex	0.503324	-1.44703	0
			vertex	0.476694	-1.94811	0
		endloop
	endfacet
	facet normal	0	0	1
		outer loop
			vertex	0.503324	-1.44703	0
			vertex	0.124366	-1.67406	0
			vertex	0.476694	-1.94811	0
		endloop
	endfacet
	facet normal	-0	0	1
		outer loop
			vertex	0.124366	-1.67406	0
			vertex	0.036997	-1.95997	0
			vertex	0.476694	-1.94811	0
		endloop
	endfacet
	facet normal	-0	-0	1
		outer loop
			vertex	1.03532	-2.41159	0
			vertex	1.43248	-2.46511	0
			vertex	1.30104	-2.05978	0
		endloop
	endfacet
	facet normal	0	-0	1
		outer loop
			vertex	1.43248	-2.46511	0
			vertex	1.72195	-2.1883	0
			vertex	1.30104	-2.05978	0
		endloop
	endfacet
	facet normal	0	0	1
		outer loop
			vertex	1.72195	-2.1883	0
			vertex	1.7144	-1.88997	0
			vertex	1.30104	-2.05978	0
		endloop
	endfacet
	facet normal	0	0	1
		outer loop
			vertex	1.7144	-1.88997	0
			vertex	1.4101	-1.57035	0
			vertex	1.30104	-2.05978	0
		endloop
	endfacet
	facet normal	0	0	1
		outer loop
			vertex	1.4101	-1.57035	0
			vertex	0.926471	-1.72749	0
			vertex	1.30104	-2.05978	0
		endloop
	endfacet
	facet normal	-0	0	1
		outer loop
			vertex	0.926471	-1.72749	0
			vertex	0.866566	-2.16564	0
			vertex	1.30104	-2.05978	0
		endloop
	endfacet
	facet normal	-0	0	1
		outer loop
			vertex	0.866566	-2.16564	0
			vertex	1.03532	-2.41159	0
			vertex	1.30104	-2.05978	0
		endloop
	endfacet
	facet normal	0	-0	1
		outer loop
			vertex	2.01141	-1.91148	0
			vertex	2.30087	-1.63467	0
			vertex	1.90327	-1.48454	0
		endloop
	endfacet
	facet normal	0	0	1
		outer loop
			vertex	2.30087	-1.63467	0
			vertex	2.26658	-1.2357	0
			vertex	1.90327	-1.48454	0
		endloop
	endfacet
	facet normal	0	0	1
		outer loop
			vertex	2.26658	-1.2357	0
			vertex	2.02954	-1.05545	0
			vertex	1.90327	-1.48454	0
		endloop
	endfacet
	facet normal	0	0	1
		outer loop
			vertex	2.02954	-1.05545	0
			vertex	1.59001	-1.09414	0
			vertex	1.90327	-1.48454	0
		endloop
	endfacet
	facet normal	-0	0	1
		outer loop
			vertex	1.59001	-1.09414	0
			vertex	1.4101	-1.57035	0
			vertex	1.90327	-1.48454	0
		endloop
	endfacet
	facet normal	-0	0	1
		outer loop
			vertex	1.4101	-1.57035	0
			vertex	1.7144	-1.88997	0
			vertex	1.90327	-1.48454	0
		endloop
	endfacet
	facet normal	-0	-0	1
		outer loop
			vertex	1.7144	-1.88997	0
			vertex	2.01141	-1.91148	0
			vertex	1.90327	-1.48454	0
		endloop
	endfacet
	facet normal	0	0	1
		outer loop
			vertex	2.23228	-0.836734	0
			vertex	2.19798	-0.437767	0
			vertex	1.83155	-0.655269	0
		endloop
	endfacet
	facet normal	0	0	1
		outer loop
			vertex	2.19798	-0.437767	0
			vertex	1.86456	-0.216285	0
			vertex	1.83155	-0.655269	0
		endloop
	endfacet
	facet normal	0	0	1
		outer loop
			vertex	1.86456	-0.216285	0
			vertex	1.57547	-0.289343	0
			vertex	1.83155	-0.655269	0
		endloop
	endfacet
	facet normal	-0	0	1
		outer loop
			vertex	1.57547	-0.289343	0
			vertex	1.33098	-0.657159	0
			vertex	1.83155	-0.655269	0
		endloop
	endfacet
	facet normal	-0	0	1
		outer loop
			vertex	1.33098	-0.657159	0
			vertex	1.59001	-1.09414	0
			vertex	1.83155	-0.655269	0
		endloop
	endfacet
	facet normal	0	-0	1
		outer loop
			vertex	1.59001	-1.09414	0
			vertex	2.02954	-1.05545	0
			vertex	1.83155	-0.655269	0
		endloop
	endfacet
	facet normal	0	-0	1
		outer loop
			vertex	2.02954	-1.05545	0
			vertex	2.23228	-0.836734	0
			vertex	1.83155	-0.655269	0
		endloop
	endfacet
endsolid /home/boris/Documents/modeleur/glassner/InterfaceBCIFS/src/PythonFiles/exp/AutoFrac/obj/hepta_star/iter1.stl
