solid /home/boris/Bureau/stl/b2_b2_b2_b2_b2_b2_b2_b2___b2_lisse/iter0.stl
	facet normal	0	0	-1
		outer loop
			vertex	-5	10	0
			vertex	-2.5	10	0
			vertex	0	0	0
		endloop
	endfacet
	facet normal	0	0	-1
		outer loop
			vertex	-2.5	10	0
			vertex	0	10	0
			vertex	0	0	0
		endloop
	endfacet
	facet normal	0	-0	-1
		outer loop
			vertex	0	10	0
			vertex	2.5	10	0
			vertex	0	0	0
		endloop
	endfacet
	facet normal	0	-0	-1
		outer loop
			vertex	2.5	10	0
			vertex	5	10	0
			vertex	0	0	0
		endloop
	endfacet
	facet normal	0	-0	-1
		outer loop
			vertex	5	10	0
			vertex	5.3125	7.8125	0
			vertex	0	0	0
		endloop
	endfacet
	facet normal	0	-0	-1
		outer loop
			vertex	5.3125	7.8125	0
			vertex	6.25	6.25	0
			vertex	0	0	0
		endloop
	endfacet
	facet normal	0	-0	-1
		outer loop
			vertex	6.25	6.25	0
			vertex	7.8125	5.3125	0
			vertex	0	0	0
		endloop
	endfacet
	facet normal	0	-0	-1
		outer loop
			vertex	7.8125	5.3125	0
			vertex	10	5	0
			vertex	0	0	0
		endloop
	endfacet
	facet normal	0	-0	-1
		outer loop
			vertex	10	5	0
			vertex	10	2.5	0
			vertex	0	0	0
		endloop
	endfacet
	facet normal	-0	-0	-1
		outer loop
			vertex	10	2.5	0
			vertex	10	0	0
			vertex	0	0	0
		endloop
	endfacet
	facet normal	-0	-0	-1
		outer loop
			vertex	10	0	0
			vertex	10	-2.5	0
			vertex	0	0	0
		endloop
	endfacet
	facet normal	-0	-0	-1
		outer loop
			vertex	10	-2.5	0
			vertex	10	-5	0
			vertex	0	0	0
		endloop
	endfacet
	facet normal	-0	0	-1
		outer loop
			vertex	10	-5	0
			vertex	7.8125	-5.3125	0
			vertex	0	0	0
		endloop
	endfacet
	facet normal	-0	0	-1
		outer loop
			vertex	7.8125	-5.3125	0
			vertex	6.25	-6.25	0
			vertex	0	0	0
		endloop
	endfacet
	facet normal	-0	0	-1
		outer loop
			vertex	6.25	-6.25	0
			vertex	5.3125	-7.8125	0
			vertex	0	0	0
		endloop
	endfacet
	facet normal	-0	0	-1
		outer loop
			vertex	5.3125	-7.8125	0
			vertex	5	-10	0
			vertex	0	0	0
		endloop
	endfacet
	facet normal	0	0	-1
		outer loop
			vertex	5	-10	0
			vertex	2.5	-10	0
			vertex	0	0	0
		endloop
	endfacet
	facet normal	0	0	-1
		outer loop
			vertex	2.5	-10	0
			vertex	0	-10	0
			vertex	0	0	0
		endloop
	endfacet
	facet normal	0	0	-1
		outer loop
			vertex	0	-10	0
			vertex	-2.5	-10	0
			vertex	0	0	0
		endloop
	endfacet
	facet normal	0	0	-1
		outer loop
			vertex	-2.5	-10	0
			vertex	-5	-10	0
			vertex	0	0	0
		endloop
	endfacet
	facet normal	0	0	-1
		outer loop
			vertex	-5	-10	0
			vertex	-5.3125	-7.8125	0
			vertex	0	0	0
		endloop
	endfacet
	facet normal	0	0	-1
		outer loop
			vertex	-5.3125	-7.8125	0
			vertex	-6.25	-6.25	0
			vertex	0	0	0
		endloop
	endfacet
	facet normal	0	0	-1
		outer loop
			vertex	-6.25	-6.25	0
			vertex	-7.8125	-5.3125	0
			vertex	0	0	0
		endloop
	endfacet
	facet normal	0	0	-1
		outer loop
			vertex	-7.8125	-5.3125	0
			vertex	-10	-5	0
			vertex	0	0	0
		endloop
	endfacet
	facet normal	0	0	-1
		outer loop
			vertex	-10	-5	0
			vertex	-10	-2.5	0
			vertex	0	0	0
		endloop
	endfacet
	facet normal	0	0	-1
		outer loop
			vertex	-10	-2.5	0
			vertex	-10	0	0
			vertex	0	0	0
		endloop
	endfacet
	facet normal	0	0	-1
		outer loop
			vertex	-10	0	0
			vertex	-10	2.5	0
			vertex	0	0	0
		endloop
	endfacet
	facet normal	0	0	-1
		outer loop
			vertex	-10	2.5	0
			vertex	-10	5	0
			vertex	0	0	0
		endloop
	endfacet
	facet normal	0	0	-1
		outer loop
			vertex	-10	5	0
			vertex	-7.8125	5.3125	0
			vertex	0	0	0
		endloop
	endfacet
	facet normal	0	0	-1
		outer loop
			vertex	-7.8125	5.3125	0
			vertex	-6.25	6.25	0
			vertex	0	0	0
		endloop
	endfacet
	facet normal	0	0	-1
		outer loop
			vertex	-6.25	6.25	0
			vertex	-5.3125	7.8125	0
			vertex	0	0	0
		endloop
	endfacet
	facet normal	0	0	-1
		outer loop
			vertex	-5.3125	7.8125	0
			vertex	-5	10	0
			vertex	0	0	0
		endloop
	endfacet
endsolid /home/boris/Bureau/stl/b2_b2_b2_b2_b2_b2_b2_b2___b2_lisse/iter0.stl
