solid /home/boris/Bureau/stl/b2_b2_b2_b2_b2_b2_b2_b2___b2_lisse/iter1.stl
	facet normal	0	0	-1
		outer loop
			vertex	0	10	0
			vertex	1.25	10	0
			vertex	2.78073	6.53076	0
		endloop
	endfacet
	facet normal	0	0	-1
		outer loop
			vertex	1.25	10	0
			vertex	2.5	10	0
			vertex	2.78073	6.53076	0
		endloop
	endfacet
	facet normal	0	-0	-1
		outer loop
			vertex	2.5	10	0
			vertex	3.75	10	0
			vertex	2.78073	6.53076	0
		endloop
	endfacet
	facet normal	0	-0	-1
		outer loop
			vertex	3.75	10	0
			vertex	5	10	0
			vertex	2.78073	6.53076	0
		endloop
	endfacet
	facet normal	0	-0	-1
		outer loop
			vertex	5	10	0
			vertex	5.07812	8.82812	0
			vertex	2.78073	6.53076	0
		endloop
	endfacet
	facet normal	0	-0	-1
		outer loop
			vertex	5.07812	8.82812	0
			vertex	5.3125	7.8125	0
			vertex	2.78073	6.53076	0
		endloop
	endfacet
	facet normal	0	-0	-1
		outer loop
			vertex	5.3125	7.8125	0
			vertex	5.70312	6.95312	0
			vertex	2.78073	6.53076	0
		endloop
	endfacet
	facet normal	-0	-0	-1
		outer loop
			vertex	5.70312	6.95312	0
			vertex	6.25	6.25	0
			vertex	2.78073	6.53076	0
		endloop
	endfacet
	facet normal	-0	0	-1
		outer loop
			vertex	6.25	6.25	0
			vertex	5.40428	5.39388	0
			vertex	2.78073	6.53076	0
		endloop
	endfacet
	facet normal	-0	0	-1
		outer loop
			vertex	5.40428	5.39388	0
			vertex	4.52122	4.49564	0
			vertex	2.78073	6.53076	0
		endloop
	endfacet
	facet normal	-0	0	-1
		outer loop
			vertex	4.52122	4.49564	0
			vertex	3.60081	3.55528	0
			vertex	2.78073	6.53076	0
		endloop
	endfacet
	facet normal	-0	0	-1
		outer loop
			vertex	3.60081	3.55528	0
			vertex	2.64305	2.5728	0
			vertex	2.78073	6.53076	0
		endloop
	endfacet
	facet normal	0	0	-1
		outer loop
			vertex	2.64305	2.5728	0
			vertex	2.07123	3.05393	0
			vertex	2.78073	6.53076	0
		endloop
	endfacet
	facet normal	0	0	-1
		outer loop
			vertex	2.07123	3.05393	0
			vertex	1.45659	3.40049	0
			vertex	2.78073	6.53076	0
		endloop
	endfacet
	facet normal	0	0	-1
		outer loop
			vertex	1.45659	3.40049	0
			vertex	0.799138	3.61249	0
			vertex	2.78073	6.53076	0
		endloop
	endfacet
	facet normal	0	0	-1
		outer loop
			vertex	0.799138	3.61249	0
			vertex	0.098863	3.68993	0
			vertex	2.78073	6.53076	0
		endloop
	endfacet
	facet normal	0	0	-1
		outer loop
			vertex	0.098863	3.68993	0
			vertex	0.082351	5.40611	0
			vertex	2.78073	6.53076	0
		endloop
	endfacet
	facet normal	0	0	-1
		outer loop
			vertex	0.082351	5.40611	0
			vertex	0.06037	7.02985	0
			vertex	2.78073	6.53076	0
		endloop
	endfacet
	facet normal	0	0	-1
		outer loop
			vertex	0.06037	7.02985	0
			vertex	0.03292	8.56114	0
			vertex	2.78073	6.53076	0
		endloop
	endfacet
	facet normal	0	0	-1
		outer loop
			vertex	0.03292	8.56114	0
			vertex	0	10	0
			vertex	2.78073	6.53076	0
		endloop
	endfacet
	facet normal	0	-0	-1
		outer loop
			vertex	6.25	6.25	0
			vertex	6.95312	5.70312	0
			vertex	6.52669	2.75393	0
		endloop
	endfacet
	facet normal	0	-0	-1
		outer loop
			vertex	6.95312	5.70312	0
			vertex	7.8125	5.3125	0
			vertex	6.52669	2.75393	0
		endloop
	endfacet
	facet normal	0	-0	-1
		outer loop
			vertex	7.8125	5.3125	0
			vertex	8.82812	5.07812	0
			vertex	6.52669	2.75393	0
		endloop
	endfacet
	facet normal	0	-0	-1
		outer loop
			vertex	8.82812	5.07812	0
			vertex	10	5	0
			vertex	6.52669	2.75393	0
		endloop
	endfacet
	facet normal	0	-0	-1
		outer loop
			vertex	10	5	0
			vertex	10	3.75	0
			vertex	6.52669	2.75393	0
		endloop
	endfacet
	facet normal	-0	-0	-1
		outer loop
			vertex	10	3.75	0
			vertex	10	2.5	0
			vertex	6.52669	2.75393	0
		endloop
	endfacet
	facet normal	-0	-0	-1
		outer loop
			vertex	10	2.5	0
			vertex	10	1.25	0
			vertex	6.52669	2.75393	0
		endloop
	endfacet
	facet normal	-0	-0	-1
		outer loop
			vertex	10	1.25	0
			vertex	10	0	0
			vertex	6.52669	2.75393	0
		endloop
	endfacet
	facet normal	0	0	-1
		outer loop
			vertex	10	0	0
			vertex	8.53444	0.001524	0
			vertex	6.52669	2.75393	0
		endloop
	endfacet
	facet normal	0	0	-1
		outer loop
			vertex	8.53444	0.001524	0
			vertex	6.98447	0.011835	0
			vertex	6.52669	2.75393	0
		endloop
	endfacet
	facet normal	0	0	-1
		outer loop
			vertex	6.98447	0.011835	0
			vertex	5.35009	0.030935	0
			vertex	6.52669	2.75393	0
		endloop
	endfacet
	facet normal	0	0	-1
		outer loop
			vertex	5.35009	0.030935	0
			vertex	3.63131	0.058823	0
			vertex	6.52669	2.75393	0
		endloop
	endfacet
	facet normal	0	0	-1
		outer loop
			vertex	3.63131	0.058823	0
			vertex	3.56688	0.737311	0
			vertex	6.52669	2.75393	0
		endloop
	endfacet
	facet normal	0	0	-1
		outer loop
			vertex	3.56688	0.737311	0
			vertex	3.3807	1.38247	0
			vertex	6.52669	2.75393	0
		endloop
	endfacet
	facet normal	0	0	-1
		outer loop
			vertex	3.3807	1.38247	0
			vertex	3.07275	1.9943	0
			vertex	6.52669	2.75393	0
		endloop
	endfacet
	facet normal	0	0	-1
		outer loop
			vertex	3.07275	1.9943	0
			vertex	2.64305	2.5728	0
			vertex	6.52669	2.75393	0
		endloop
	endfacet
	facet normal	0	0	-1
		outer loop
			vertex	2.64305	2.5728	0
			vertex	3.60081	3.55528	0
			vertex	6.52669	2.75393	0
		endloop
	endfacet
	facet normal	0	0	-1
		outer loop
			vertex	3.60081	3.55528	0
			vertex	4.52122	4.49564	0
			vertex	6.52669	2.75393	0
		endloop
	endfacet
	facet normal	0	0	-1
		outer loop
			vertex	4.52122	4.49564	0
			vertex	5.40428	5.39388	0
			vertex	6.52669	2.75393	0
		endloop
	endfacet
	facet normal	0	0	-1
		outer loop
			vertex	5.40428	5.39388	0
			vertex	6.25	6.25	0
			vertex	6.52669	2.75393	0
		endloop
	endfacet
	facet normal	0	-0	-1
		outer loop
			vertex	10	0	0
			vertex	10	-1.25	0
			vertex	6.50487	-2.73115	0
		endloop
	endfacet
	facet normal	0	-0	-1
		outer loop
			vertex	10	-1.25	0
			vertex	10	-2.5	0
			vertex	6.50487	-2.73115	0
		endloop
	endfacet
	facet normal	-0	-0	-1
		outer loop
			vertex	10	-2.5	0
			vertex	10	-3.75	0
			vertex	6.50487	-2.73115	0
		endloop
	endfacet
	facet normal	-0	-0	-1
		outer loop
			vertex	10	-3.75	0
			vertex	10	-5	0
			vertex	6.50487	-2.73115	0
		endloop
	endfacet
	facet normal	-0	0	-1
		outer loop
			vertex	10	-5	0
			vertex	8.82812	-5.07812	0
			vertex	6.50487	-2.73115	0
		endloop
	endfacet
	facet normal	-0	0	-1
		outer loop
			vertex	8.82812	-5.07812	0
			vertex	7.8125	-5.3125	0
			vertex	6.50487	-2.73115	0
		endloop
	endfacet
	facet normal	-0	0	-1
		outer loop
			vertex	7.8125	-5.3125	0
			vertex	6.95312	-5.70312	0
			vertex	6.50487	-2.73115	0
		endloop
	endfacet
	facet normal	-0	0	-1
		outer loop
			vertex	6.95312	-5.70312	0
			vertex	6.25	-6.25	0
			vertex	6.50487	-2.73115	0
		endloop
	endfacet
	facet normal	0	0	-1
		outer loop
			vertex	6.25	-6.25	0
			vertex	5.37284	-5.38601	0
			vertex	6.50487	-2.73115	0
		endloop
	endfacet
	facet normal	0	0	-1
		outer loop
			vertex	5.37284	-5.38601	0
			vertex	4.46311	-4.47741	0
			vertex	6.50487	-2.73115	0
		endloop
	endfacet
	facet normal	0	0	-1
		outer loop
			vertex	4.46311	-4.47741	0
			vertex	3.5208	-3.5242	0
			vertex	6.50487	-2.73115	0
		endloop
	endfacet
	facet normal	0	0	-1
		outer loop
			vertex	3.5208	-3.5242	0
			vertex	2.54592	-2.52638	0
			vertex	6.50487	-2.73115	0
		endloop
	endfacet
	facet normal	0	0	-1
		outer loop
			vertex	2.54592	-2.52638	0
			vertex	2.99275	-1.96018	0
			vertex	6.50487	-2.73115	0
		endloop
	endfacet
	facet normal	0	0	-1
		outer loop
			vertex	2.99275	-1.96018	0
			vertex	3.32259	-1.34057	0
			vertex	6.50487	-2.73115	0
		endloop
	endfacet
	facet normal	0	0	-1
		outer loop
			vertex	3.32259	-1.34057	0
			vertex	3.53544	-0.667575	0
			vertex	6.50487	-2.73115	0
		endloop
	endfacet
	facet normal	0	0	-1
		outer loop
			vertex	3.53544	-0.667575	0
			vertex	3.63131	0.058823	0
			vertex	6.50487	-2.73115	0
		endloop
	endfacet
	facet normal	0	0	-1
		outer loop
			vertex	3.63131	0.058823	0
			vertex	5.35009	0.030935	0
			vertex	6.50487	-2.73115	0
		endloop
	endfacet
	facet normal	0	-0	-1
		outer loop
			vertex	5.35009	0.030935	0
			vertex	6.98447	0.011835	0
			vertex	6.50487	-2.73115	0
		endloop
	endfacet
	facet normal	0	-0	-1
		outer loop
			vertex	6.98447	0.011835	0
			vertex	8.53444	0.001524	0
			vertex	6.50487	-2.73115	0
		endloop
	endfacet
	facet normal	0	-0	-1
		outer loop
			vertex	8.53444	0.001524	0
			vertex	10	0	0
			vertex	6.50487	-2.73115	0
		endloop
	endfacet
	facet normal	-0	0	-1
		outer loop
			vertex	6.25	-6.25	0
			vertex	5.70312	-6.95312	0
			vertex	2.73407	-6.4792	0
		endloop
	endfacet
	facet normal	-0	0	-1
		outer loop
			vertex	5.70312	-6.95312	0
			vertex	5.3125	-7.8125	0
			vertex	2.73407	-6.4792	0
		endloop
	endfacet
	facet normal	-0	0	-1
		outer loop
			vertex	5.3125	-7.8125	0
			vertex	5.07812	-8.82812	0
			vertex	2.73407	-6.4792	0
		endloop
	endfacet
	facet normal	-0	0	-1
		outer loop
			vertex	5.07812	-8.82812	0
			vertex	5	-10	0
			vertex	2.73407	-6.4792	0
		endloop
	endfacet
	facet normal	0	0	-1
		outer loop
			vertex	5	-10	0
			vertex	3.75	-10	0
			vertex	2.73407	-6.4792	0
		endloop
	endfacet
	facet normal	0	0	-1
		outer loop
			vertex	3.75	-10	0
			vertex	2.5	-10	0
			vertex	2.73407	-6.4792	0
		endloop
	endfacet
	facet normal	0	0	-1
		outer loop
			vertex	2.5	-10	0
			vertex	1.25	-10	0
			vertex	2.73407	-6.4792	0
		endloop
	endfacet
	facet normal	0	0	-1
		outer loop
			vertex	1.25	-10	0
			vertex	0	-10	0
			vertex	2.73407	-6.4792	0
		endloop
	endfacet
	facet normal	0	0	-1
		outer loop
			vertex	0	-10	0
			vertex	-0.002549	-8.41463	0
			vertex	2.73407	-6.4792	0
		endloop
	endfacet
	facet normal	0	0	-1
		outer loop
			vertex	-0.002549	-8.41463	0
			vertex	-0.003367	-6.81489	0
			vertex	2.73407	-6.4792	0
		endloop
	endfacet
	facet normal	0	0	-1
		outer loop
			vertex	-0.003367	-6.81489	0
			vertex	-0.002455	-5.20078	0
			vertex	2.73407	-6.4792	0
		endloop
	endfacet
	facet normal	0	0	-1
		outer loop
			vertex	-0.002455	-5.20078	0
			vertex	0.000187	-3.5723	0
			vertex	2.73407	-6.4792	0
		endloop
	endfacet
	facet normal	0	0	-1
		outer loop
			vertex	0.000187	-3.5723	0
			vertex	0.673834	-3.51353	0
			vertex	2.73407	-6.4792	0
		endloop
	endfacet
	facet normal	0	0	-1
		outer loop
			vertex	0.673834	-3.51353	0
			vertex	1.32267	-3.31962	0
			vertex	2.73407	-6.4792	0
		endloop
	endfacet
	facet normal	0	0	-1
		outer loop
			vertex	1.32267	-3.31962	0
			vertex	1.9467	-2.99057	0
			vertex	2.73407	-6.4792	0
		endloop
	endfacet
	facet normal	0	0	-1
		outer loop
			vertex	1.9467	-2.99057	0
			vertex	2.54592	-2.52638	0
			vertex	2.73407	-6.4792	0
		endloop
	endfacet
	facet normal	0	-0	-1
		outer loop
			vertex	2.54592	-2.52638	0
			vertex	3.5208	-3.5242	0
			vertex	2.73407	-6.4792	0
		endloop
	endfacet
	facet normal	0	-0	-1
		outer loop
			vertex	3.5208	-3.5242	0
			vertex	4.46311	-4.47741	0
			vertex	2.73407	-6.4792	0
		endloop
	endfacet
	facet normal	0	-0	-1
		outer loop
			vertex	4.46311	-4.47741	0
			vertex	5.37284	-5.38601	0
			vertex	2.73407	-6.4792	0
		endloop
	endfacet
	facet normal	0	-0	-1
		outer loop
			vertex	5.37284	-5.38601	0
			vertex	6.25	-6.25	0
			vertex	2.73407	-6.4792	0
		endloop
	endfacet
	facet normal	0	0	-1
		outer loop
			vertex	0	-10	0
			vertex	-1.25	-10	0
			vertex	-2.74496	-6.4673	0
		endloop
	endfacet
	facet normal	0	0	-1
		outer loop
			vertex	-1.25	-10	0
			vertex	-2.5	-10	0
			vertex	-2.74496	-6.4673	0
		endloop
	endfacet
	facet normal	0	0	-1
		outer loop
			vertex	-2.5	-10	0
			vertex	-3.75	-10	0
			vertex	-2.74496	-6.4673	0
		endloop
	endfacet
	facet normal	0	0	-1
		outer loop
			vertex	-3.75	-10	0
			vertex	-5	-10	0
			vertex	-2.74496	-6.4673	0
		endloop
	endfacet
	facet normal	0	0	-1
		outer loop
			vertex	-5	-10	0
			vertex	-5.07812	-8.82812	0
			vertex	-2.74496	-6.4673	0
		endloop
	endfacet
	facet normal	0	0	-1
		outer loop
			vertex	-5.07812	-8.82812	0
			vertex	-5.3125	-7.8125	0
			vertex	-2.74496	-6.4673	0
		endloop
	endfacet
	facet normal	0	0	-1
		outer loop
			vertex	-5.3125	-7.8125	0
			vertex	-5.70312	-6.95312	0
			vertex	-2.74496	-6.4673	0
		endloop
	endfacet
	facet normal	0	0	-1
		outer loop
			vertex	-5.70312	-6.95312	0
			vertex	-6.25	-6.25	0
			vertex	-2.74496	-6.4673	0
		endloop
	endfacet
	facet normal	0	0	-1
		outer loop
			vertex	-6.25	-6.25	0
			vertex	-5.38822	-5.36478	0
			vertex	-2.74496	-6.4673	0
		endloop
	endfacet
	facet normal	0	0	-1
		outer loop
			vertex	-5.38822	-5.36478	0
			vertex	-4.48517	-4.44221	0
			vertex	-2.74496	-6.4673	0
		endloop
	endfacet
	facet normal	0	0	-1
		outer loop
			vertex	-4.48517	-4.44221	0
			vertex	-3.54084	-3.48229	0
			vertex	-2.74496	-6.4673	0
		endloop
	endfacet
	facet normal	0	-0	-1
		outer loop
			vertex	-3.54084	-3.48229	0
			vertex	-2.55524	-2.485	0
			vertex	-2.74496	-6.4673	0
		endloop
	endfacet
	facet normal	0	-0	-1
		outer loop
			vertex	-2.55524	-2.485	0
			vertex	-1.98995	-2.94865	0
			vertex	-2.74496	-6.4673	0
		endloop
	endfacet
	facet normal	0	-0	-1
		outer loop
			vertex	-1.98995	-2.94865	0
			vertex	-1.37562	-3.28442	0
			vertex	-2.74496	-6.4673	0
		endloop
	endfacet
	facet normal	0	-0	-1
		outer loop
			vertex	-1.37562	-3.28442	0
			vertex	-0.712235	-3.4923	0
			vertex	-2.74496	-6.4673	0
		endloop
	endfacet
	facet normal	0	-0	-1
		outer loop
			vertex	-0.712235	-3.4923	0
			vertex	0.000187	-3.5723	0
			vertex	-2.74496	-6.4673	0
		endloop
	endfacet
	facet normal	0	0	-1
		outer loop
			vertex	0.000187	-3.5723	0
			vertex	-0.002455	-5.20078	0
			vertex	-2.74496	-6.4673	0
		endloop
	endfacet
	facet normal	-0	0	-1
		outer loop
			vertex	-0.002455	-5.20078	0
			vertex	-0.003367	-6.81489	0
			vertex	-2.74496	-6.4673	0
		endloop
	endfacet
	facet normal	-0	-0	-1
		outer loop
			vertex	-0.003367	-6.81489	0
			vertex	-0.002549	-8.41463	0
			vertex	-2.74496	-6.4673	0
		endloop
	endfacet
	facet normal	-0	-0	-1
		outer loop
			vertex	-0.002549	-8.41463	0
			vertex	0	-10	0
			vertex	-2.74496	-6.4673	0
		endloop
	endfacet
	facet normal	0	0	-1
		outer loop
			vertex	-6.25	-6.25	0
			vertex	-6.95312	-5.70312	0
			vertex	-6.46274	-2.72187	0
		endloop
	endfacet
	facet normal	0	0	-1
		outer loop
			vertex	-6.95312	-5.70312	0
			vertex	-7.8125	-5.3125	0
			vertex	-6.46274	-2.72187	0
		endloop
	endfacet
	facet normal	0	0	-1
		outer loop
			vertex	-7.8125	-5.3125	0
			vertex	-8.82812	-5.07812	0
			vertex	-6.46274	-2.72187	0
		endloop
	endfacet
	facet normal	0	0	-1
		outer loop
			vertex	-8.82812	-5.07812	0
			vertex	-10	-5	0
			vertex	-6.46274	-2.72187	0
		endloop
	endfacet
	facet normal	0	0	-1
		outer loop
			vertex	-10	-5	0
			vertex	-10	-3.75	0
			vertex	-6.46274	-2.72187	0
		endloop
	endfacet
	facet normal	0	0	-1
		outer loop
			vertex	-10	-3.75	0
			vertex	-10	-2.5	0
			vertex	-6.46274	-2.72187	0
		endloop
	endfacet
	facet normal	0	0	-1
		outer loop
			vertex	-10	-2.5	0
			vertex	-10	-1.25	0
			vertex	-6.46274	-2.72187	0
		endloop
	endfacet
	facet normal	0	0	-1
		outer loop
			vertex	-10	-1.25	0
			vertex	-10	0	0
			vertex	-6.46274	-2.72187	0
		endloop
	endfacet
	facet normal	0	0	-1
		outer loop
			vertex	-10	0	0
			vertex	-8.33222	0.020802	0
			vertex	-6.46274	-2.72187	0
		endloop
	endfacet
	facet normal	0	0	-1
		outer loop
			vertex	-8.33222	0.020802	0
			vertex	-6.69834	0.024385	0
			vertex	-6.46274	-2.72187	0
		endloop
	endfacet
	facet normal	0	-0	-1
		outer loop
			vertex	-6.69834	0.024385	0
			vertex	-5.09835	0.010747	0
			vertex	-6.46274	-2.72187	0
		endloop
	endfacet
	facet normal	0	-0	-1
		outer loop
			vertex	-5.09835	0.010747	0
			vertex	-3.53226	-0.02011	0
			vertex	-6.46274	-2.72187	0
		endloop
	endfacet
	facet normal	0	-0	-1
		outer loop
			vertex	-3.53226	-0.02011	0
			vertex	-3.48276	-0.665599	0
			vertex	-6.46274	-2.72187	0
		endloop
	endfacet
	facet normal	0	-0	-1
		outer loop
			vertex	-3.48276	-0.665599	0
			vertex	-3.30342	-1.29158	0
			vertex	-6.46274	-2.72187	0
		endloop
	endfacet
	facet normal	0	-0	-1
		outer loop
			vertex	-3.30342	-1.29158	0
			vertex	-2.99425	-1.89805	0
			vertex	-6.46274	-2.72187	0
		endloop
	endfacet
	facet normal	0	-0	-1
		outer loop
			vertex	-2.99425	-1.89805	0
			vertex	-2.55524	-2.485	0
			vertex	-6.46274	-2.72187	0
		endloop
	endfacet
	facet normal	-0	0	-1
		outer loop
			vertex	-2.55524	-2.485	0
			vertex	-3.54084	-3.48229	0
			vertex	-6.46274	-2.72187	0
		endloop
	endfacet
	facet normal	-0	0	-1
		outer loop
			vertex	-3.54084	-3.48229	0
			vertex	-4.48517	-4.44221	0
			vertex	-6.46274	-2.72187	0
		endloop
	endfacet
	facet normal	-0	0	-1
		outer loop
			vertex	-4.48517	-4.44221	0
			vertex	-5.38822	-5.36478	0
			vertex	-6.46274	-2.72187	0
		endloop
	endfacet
	facet normal	-0	0	-1
		outer loop
			vertex	-5.38822	-5.36478	0
			vertex	-6.25	-6.25	0
			vertex	-6.46274	-2.72187	0
		endloop
	endfacet
	facet normal	0	0	-1
		outer loop
			vertex	-10	0	0
			vertex	-10	1.25	0
			vertex	-6.41332	2.7835	0
		endloop
	endfacet
	facet normal	0	0	-1
		outer loop
			vertex	-10	1.25	0
			vertex	-10	2.5	0
			vertex	-6.41332	2.7835	0
		endloop
	endfacet
	facet normal	0	0	-1
		outer loop
			vertex	-10	2.5	0
			vertex	-10	3.75	0
			vertex	-6.41332	2.7835	0
		endloop
	endfacet
	facet normal	0	0	-1
		outer loop
			vertex	-10	3.75	0
			vertex	-10	5	0
			vertex	-6.41332	2.7835	0
		endloop
	endfacet
	facet normal	0	0	-1
		outer loop
			vertex	-10	5	0
			vertex	-8.82812	5.07812	0
			vertex	-6.41332	2.7835	0
		endloop
	endfacet
	facet normal	0	0	-1
		outer loop
			vertex	-8.82812	5.07812	0
			vertex	-7.8125	5.3125	0
			vertex	-6.41332	2.7835	0
		endloop
	endfacet
	facet normal	0	0	-1
		outer loop
			vertex	-7.8125	5.3125	0
			vertex	-6.95312	5.70312	0
			vertex	-6.41332	2.7835	0
		endloop
	endfacet
	facet normal	0	-0	-1
		outer loop
			vertex	-6.95312	5.70312	0
			vertex	-6.25	6.25	0
			vertex	-6.41332	2.7835	0
		endloop
	endfacet
	facet normal	0	-0	-1
		outer loop
			vertex	-6.25	6.25	0
			vertex	-5.34007	5.42411	0
			vertex	-6.41332	2.7835	0
		endloop
	endfacet
	facet normal	0	-0	-1
		outer loop
			vertex	-5.34007	5.42411	0
			vertex	-4.3733	4.56755	0
			vertex	-6.41332	2.7835	0
		endloop
	endfacet
	facet normal	0	-0	-1
		outer loop
			vertex	-4.3733	4.56755	0
			vertex	-3.3497	3.68032	0
			vertex	-6.41332	2.7835	0
		endloop
	endfacet
	facet normal	-0	-0	-1
		outer loop
			vertex	-3.3497	3.68032	0
			vertex	-2.26926	2.76243	0
			vertex	-6.41332	2.7835	0
		endloop
	endfacet
	facet normal	-0	0	-1
		outer loop
			vertex	-2.26926	2.76243	0
			vertex	-2.8031	2.13956	0
			vertex	-6.41332	2.7835	0
		endloop
	endfacet
	facet normal	-0	0	-1
		outer loop
			vertex	-2.8031	2.13956	0
			vertex	-3.19154	1.46819	0
			vertex	-6.41332	2.7835	0
		endloop
	endfacet
	facet normal	-0	0	-1
		outer loop
			vertex	-3.19154	1.46819	0
			vertex	-3.4346	0.748295	0
			vertex	-6.41332	2.7835	0
		endloop
	endfacet
	facet normal	-0	0	-1
		outer loop
			vertex	-3.4346	0.748295	0
			vertex	-3.53226	-0.02011	0
			vertex	-6.41332	2.7835	0
		endloop
	endfacet
	facet normal	0	0	-1
		outer loop
			vertex	-3.53226	-0.02011	0
			vertex	-5.09835	0.010747	0
			vertex	-6.41332	2.7835	0
		endloop
	endfacet
	facet normal	0	0	-1
		outer loop
			vertex	-5.09835	0.010747	0
			vertex	-6.69834	0.024385	0
			vertex	-6.41332	2.7835	0
		endloop
	endfacet
	facet normal	-0	0	-1
		outer loop
			vertex	-6.69834	0.024385	0
			vertex	-8.33222	0.020802	0
			vertex	-6.41332	2.7835	0
		endloop
	endfacet
	facet normal	-0	0	-1
		outer loop
			vertex	-8.33222	0.020802	0
			vertex	-10	0	0
			vertex	-6.41332	2.7835	0
		endloop
	endfacet
	facet normal	0	0	-1
		outer loop
			vertex	-6.25	6.25	0
			vertex	-5.70312	6.95312	0
			vertex	-2.6707	6.56296	0
		endloop
	endfacet
	facet normal	0	0	-1
		outer loop
			vertex	-5.70312	6.95312	0
			vertex	-5.3125	7.8125	0
			vertex	-2.6707	6.56296	0
		endloop
	endfacet
	facet normal	0	0	-1
		outer loop
			vertex	-5.3125	7.8125	0
			vertex	-5.07812	8.82812	0
			vertex	-2.6707	6.56296	0
		endloop
	endfacet
	facet normal	0	0	-1
		outer loop
			vertex	-5.07812	8.82812	0
			vertex	-5	10	0
			vertex	-2.6707	6.56296	0
		endloop
	endfacet
	facet normal	0	0	-1
		outer loop
			vertex	-5	10	0
			vertex	-3.75	10	0
			vertex	-2.6707	6.56296	0
		endloop
	endfacet
	facet normal	0	-0	-1
		outer loop
			vertex	-3.75	10	0
			vertex	-2.5	10	0
			vertex	-2.6707	6.56296	0
		endloop
	endfacet
	facet normal	0	-0	-1
		outer loop
			vertex	-2.5	10	0
			vertex	-1.25	10	0
			vertex	-2.6707	6.56296	0
		endloop
	endfacet
	facet normal	0	-0	-1
		outer loop
			vertex	-1.25	10	0
			vertex	0	10	0
			vertex	-2.6707	6.56296	0
		endloop
	endfacet
	facet normal	0	-0	-1
		outer loop
			vertex	0	10	0
			vertex	0.03292	8.56114	0
			vertex	-2.6707	6.56296	0
		endloop
	endfacet
	facet normal	0	-0	-1
		outer loop
			vertex	0.03292	8.56114	0
			vertex	0.06037	7.02985	0
			vertex	-2.6707	6.56296	0
		endloop
	endfacet
	facet normal	-0	-0	-1
		outer loop
			vertex	0.06037	7.02985	0
			vertex	0.082351	5.40611	0
			vertex	-2.6707	6.56296	0
		endloop
	endfacet
	facet normal	-0	-0	-1
		outer loop
			vertex	0.082351	5.40611	0
			vertex	0.098863	3.68993	0
			vertex	-2.6707	6.56296	0
		endloop
	endfacet
	facet normal	-0	0	-1
		outer loop
			vertex	0.098863	3.68993	0
			vertex	-0.570213	3.64272	0
			vertex	-2.6707	6.56296	0
		endloop
	endfacet
	facet normal	-0	0	-1
		outer loop
			vertex	-0.570213	3.64272	0
			vertex	-1.18792	3.4724	0
			vertex	-2.6707	6.56296	0
		endloop
	endfacet
	facet normal	-0	0	-1
		outer loop
			vertex	-1.18792	3.4724	0
			vertex	-1.75427	3.17897	0
			vertex	-2.6707	6.56296	0
		endloop
	endfacet
	facet normal	-0	0	-1
		outer loop
			vertex	-1.75427	3.17897	0
			vertex	-2.26926	2.76243	0
			vertex	-2.6707	6.56296	0
		endloop
	endfacet
	facet normal	0	0	-1
		outer loop
			vertex	-2.26926	2.76243	0
			vertex	-3.3497	3.68032	0
			vertex	-2.6707	6.56296	0
		endloop
	endfacet
	facet normal	0	0	-1
		outer loop
			vertex	-3.3497	3.68032	0
			vertex	-4.3733	4.56755	0
			vertex	-2.6707	6.56296	0
		endloop
	endfacet
	facet normal	0	0	-1
		outer loop
			vertex	-4.3733	4.56755	0
			vertex	-5.34007	5.42411	0
			vertex	-2.6707	6.56296	0
		endloop
	endfacet
	facet normal	0	0	-1
		outer loop
			vertex	-5.34007	5.42411	0
			vertex	-6.25	6.25	0
			vertex	-2.6707	6.56296	0
		endloop
	endfacet
endsolid /home/boris/Bureau/stl/b2_b2_b2_b2_b2_b2_b2_b2___b2_lisse/iter1.stl
