solid /home/boris/Bureau/rawad/c2_c2_c2_c2___c2/iter2.stl
	facet normal	0	-0	1
		outer loop
			vertex	7.77778	-10	0
			vertex	10	-10	0
			vertex	7.87069	-7.93348	0
		endloop
	endfacet
	facet normal	0	-0	1
		outer loop
			vertex	10	-10	0
			vertex	10	-7.77778	0
			vertex	7.87069	-7.93348	0
		endloop
	endfacet
	facet normal	0	0	1
		outer loop
			vertex	10	-7.77778	0
			vertex	8.63199	-6.44671	0
			vertex	7.87069	-7.93348	0
		endloop
	endfacet
	facet normal	0	0	1
		outer loop
			vertex	8.63199	-6.44671	0
			vertex	6.53219	-5.73372	0
			vertex	7.87069	-7.93348	0
		endloop
	endfacet
	facet normal	0	0	1
		outer loop
			vertex	6.53219	-5.73372	0
			vertex	5.53477	-6.75688	0
			vertex	7.87069	-7.93348	0
		endloop
	endfacet
	facet normal	-0	0	1
		outer loop
			vertex	5.53477	-6.75688	0
			vertex	6.61806	-8.81924	0
			vertex	7.87069	-7.93348	0
		endloop
	endfacet
	facet normal	-0	0	1
		outer loop
			vertex	6.61806	-8.81924	0
			vertex	7.77778	-10	0
			vertex	7.87069	-7.93348	0
		endloop
	endfacet
	facet normal	0	-0	1
		outer loop
			vertex	10	-5.55556	0
			vertex	10	-3.33334	0
			vertex	8.282	-4.59664	0
		endloop
	endfacet
	facet normal	0	0	1
		outer loop
			vertex	10	-3.33334	0
			vertex	8.38878	-2.51875	0
			vertex	8.282	-4.59664	0
		endloop
	endfacet
	facet normal	0	0	1
		outer loop
			vertex	8.38878	-2.51875	0
			vertex	6.13905	-3.99177	0
			vertex	8.282	-4.59664	0
		endloop
	endfacet
	facet normal	-0	0	1
		outer loop
			vertex	6.13905	-3.99177	0
			vertex	6.53219	-5.73372	0
			vertex	8.282	-4.59664	0
		endloop
	endfacet
	facet normal	-0	-0	1
		outer loop
			vertex	6.53219	-5.73372	0
			vertex	8.63199	-6.44671	0
			vertex	8.282	-4.59664	0
		endloop
	endfacet
	facet normal	0	-0	1
		outer loop
			vertex	8.63199	-6.44671	0
			vertex	10	-5.55556	0
			vertex	8.282	-4.59664	0
		endloop
	endfacet
	facet normal	0	0	1
		outer loop
			vertex	7.91508	-0.11795	0
			vertex	5.94423	-0.117947	0
			vertex	6.35289	-1.84722	0
		endloop
	endfacet
	facet normal	0	0	1
		outer loop
			vertex	5.94423	-0.117947	0
			vertex	4.96311	-1.08774	0
			vertex	6.35289	-1.84722	0
		endloop
	endfacet
	facet normal	-0	0	1
		outer loop
			vertex	4.96311	-1.08774	0
			vertex	4.76711	-3.24917	0
			vertex	6.35289	-1.84722	0
		endloop
	endfacet
	facet normal	-0	0	1
		outer loop
			vertex	4.76711	-3.24917	0
			vertex	6.13905	-3.99177	0
			vertex	6.35289	-1.84722	0
		endloop
	endfacet
	facet normal	0	-0	1
		outer loop
			vertex	6.13905	-3.99177	0
			vertex	8.38878	-2.51875	0
			vertex	6.35289	-1.84722	0
		endloop
	endfacet
	facet normal	0	0	1
		outer loop
			vertex	8.38878	-2.51875	0
			vertex	7.91508	-0.11795	0
			vertex	6.35289	-1.84722	0
		endloop
	endfacet
	facet normal	0	0	1
		outer loop
			vertex	3.97338	-0.117943	0
			vertex	2.00254	-0.11794	0
			vertex	3.44705	-1.69082	0
		endloop
	endfacet
	facet normal	-0	0	1
		outer loop
			vertex	2.00254	-0.11794	0
			vertex	1.52724	-1.8955	0
			vertex	3.44705	-1.69082	0
		endloop
	endfacet
	facet normal	-0	-0	1
		outer loop
			vertex	1.52724	-1.8955	0
			vertex	3.4489	-3.6766	0
			vertex	3.44705	-1.69082	0
		endloop
	endfacet
	facet normal	0	-0	1
		outer loop
			vertex	3.4489	-3.6766	0
			vertex	4.76711	-3.24917	0
			vertex	3.44705	-1.69082	0
		endloop
	endfacet
	facet normal	0	-0	1
		outer loop
			vertex	4.76711	-3.24917	0
			vertex	4.96311	-1.08774	0
			vertex	3.44705	-1.69082	0
		endloop
	endfacet
	facet normal	0	0	1
		outer loop
			vertex	4.96311	-1.08774	0
			vertex	3.97338	-0.117943	0
			vertex	3.44705	-1.69082	0
		endloop
	endfacet
	facet normal	-0	0	1
		outer loop
			vertex	0.038013	-6.22694	0
			vertex	0.06336	-8.10273	0
			vertex	1.68336	-6.64762	0
		endloop
	endfacet
	facet normal	-0	-0	1
		outer loop
			vertex	0.06336	-8.10273	0
			vertex	2.49683	-8.62458	0
			vertex	1.68336	-6.64762	0
		endloop
	endfacet
	facet normal	0	-0	1
		outer loop
			vertex	2.49683	-8.62458	0
			vertex	3.67501	-6.49933	0
			vertex	1.68336	-6.64762	0
		endloop
	endfacet
	facet normal	0	0	1
		outer loop
			vertex	3.67501	-6.49933	0
			vertex	3.01211	-5.16015	0
			vertex	1.68336	-6.64762	0
		endloop
	endfacet
	facet normal	0	0	1
		outer loop
			vertex	3.01211	-5.16015	0
			vertex	0.814826	-5.27197	0
			vertex	1.68336	-6.64762	0
		endloop
	endfacet
	facet normal	0	0	1
		outer loop
			vertex	0.814826	-5.27197	0
			vertex	0.038013	-6.22694	0
			vertex	1.68336	-6.64762	0
		endloop
	endfacet
	facet normal	0	-0	1
		outer loop
			vertex	3.33334	-10	0
			vertex	5.55556	-10	0
			vertex	4.5356	-8.45001	0
		endloop
	endfacet
	facet normal	0	-0	1
		outer loop
			vertex	5.55556	-10	0
			vertex	6.61806	-8.81924	0
			vertex	4.5356	-8.45001	0
		endloop
	endfacet
	facet normal	0	0	1
		outer loop
			vertex	6.61806	-8.81924	0
			vertex	5.53477	-6.75688	0
			vertex	4.5356	-8.45001	0
		endloop
	endfacet
	facet normal	0	0	1
		outer loop
			vertex	5.53477	-6.75688	0
			vertex	3.67501	-6.49933	0
			vertex	4.5356	-8.45001	0
		endloop
	endfacet
	facet normal	-0	0	1
		outer loop
			vertex	3.67501	-6.49933	0
			vertex	2.49683	-8.62458	0
			vertex	4.5356	-8.45001	0
		endloop
	endfacet
	facet normal	-0	0	1
		outer loop
			vertex	2.49683	-8.62458	0
			vertex	3.33334	-10	0
			vertex	4.5356	-8.45001	0
		endloop
	endfacet
	facet normal	-0	0	1
		outer loop
			vertex	-0.01268	-2.47536	0
			vertex	0.012667	-4.35115	0
			vertex	1.46718	-3.80512	0
		endloop
	endfacet
	facet normal	-0	0	1
		outer loop
			vertex	0.012667	-4.35115	0
			vertex	0.814826	-5.27197	0
			vertex	1.46718	-3.80512	0
		endloop
	endfacet
	facet normal	0	-0	1
		outer loop
			vertex	0.814826	-5.27197	0
			vertex	3.01211	-5.16015	0
			vertex	1.46718	-3.80512	0
		endloop
	endfacet
	facet normal	0	-0	1
		outer loop
			vertex	3.01211	-5.16015	0
			vertex	3.4489	-3.6766	0
			vertex	1.46718	-3.80512	0
		endloop
	endfacet
	facet normal	0	0	1
		outer loop
			vertex	3.4489	-3.6766	0
			vertex	1.52724	-1.8955	0
			vertex	1.46718	-3.80512	0
		endloop
	endfacet
	facet normal	0	0	1
		outer loop
			vertex	1.52724	-1.8955	0
			vertex	-0.01268	-2.47536	0
			vertex	1.46718	-3.80512	0
		endloop
	endfacet
	facet normal	0	-0	1
		outer loop
			vertex	10	7.77778	0
			vertex	10	10	0
			vertex	7.89586	7.84073	0
		endloop
	endfacet
	facet normal	0	0	1
		outer loop
			vertex	10	10	0
			vertex	7.77778	10	0
			vertex	7.89586	7.84073	0
		endloop
	endfacet
	facet normal	0	0	1
		outer loop
			vertex	7.77778	10	0
			vertex	6.44629	8.58935	0
			vertex	7.89586	7.84073	0
		endloop
	endfacet
	facet normal	-0	0	1
		outer loop
			vertex	6.44629	8.58935	0
			vertex	5.63544	6.46379	0
			vertex	7.89586	7.84073	0
		endloop
	endfacet
	facet normal	-0	0	1
		outer loop
			vertex	5.63544	6.46379	0
			vertex	6.63505	5.46934	0
			vertex	7.89586	7.84073	0
		endloop
	endfacet
	facet normal	0	-0	1
		outer loop
			vertex	6.63505	5.46934	0
			vertex	8.77642	6.58485	0
			vertex	7.89586	7.84073	0
		endloop
	endfacet
	facet normal	0	-0	1
		outer loop
			vertex	8.77642	6.58485	0
			vertex	10	7.77778	0
			vertex	7.89586	7.84073	0
		endloop
	endfacet
	facet normal	0	0	1
		outer loop
			vertex	5.55556	10	0
			vertex	3.33334	10	0
			vertex	4.55391	8.23005	0
		endloop
	endfacet
	facet normal	0	0	1
		outer loop
			vertex	3.33334	10	0
			vertex	2.50461	8.27933	0
			vertex	4.55391	8.23005	0
		endloop
	endfacet
	facet normal	-0	0	1
		outer loop
			vertex	2.50461	8.27933	0
			vertex	3.84822	6.04784	0
			vertex	4.55391	8.23005	0
		endloop
	endfacet
	facet normal	0	-0	1
		outer loop
			vertex	3.84822	6.04784	0
			vertex	5.63544	6.46379	0
			vertex	4.55391	8.23005	0
		endloop
	endfacet
	facet normal	0	-0	1
		outer loop
			vertex	5.63544	6.46379	0
			vertex	6.44629	8.58935	0
			vertex	4.55391	8.23005	0
		endloop
	endfacet
	facet normal	0	0	1
		outer loop
			vertex	6.44629	8.58935	0
			vertex	5.55556	10	0
			vertex	4.55391	8.23005	0
		endloop
	endfacet
	facet normal	-0	0	1
		outer loop
			vertex	0.09448	7.72585	0
			vertex	0.0144	5.78933	0
			vertex	1.72441	6.22129	0
		endloop
	endfacet
	facet normal	-0	0	1
		outer loop
			vertex	0.0144	5.78933	0
			vertex	0.847611	4.82942	0
			vertex	1.72441	6.22129	0
		endloop
	endfacet
	facet normal	-0	-0	1
		outer loop
			vertex	0.847611	4.82942	0
			vertex	3.03712	4.65596	0
			vertex	1.72441	6.22129	0
		endloop
	endfacet
	facet normal	0	-0	1
		outer loop
			vertex	3.03712	4.65596	0
			vertex	3.84822	6.04784	0
			vertex	1.72441	6.22129	0
		endloop
	endfacet
	facet normal	0	0	1
		outer loop
			vertex	3.84822	6.04784	0
			vertex	2.50461	8.27933	0
			vertex	1.72441	6.22129	0
		endloop
	endfacet
	facet normal	0	0	1
		outer loop
			vertex	2.50461	8.27933	0
			vertex	0.09448	7.72585	0
			vertex	1.72441	6.22129	0
		endloop
	endfacet
	facet normal	-0	0	1
		outer loop
			vertex	-0.06568	3.8528	0
			vertex	-0.14576	1.91628	0
			vertex	1.415	3.32592	0
		endloop
	endfacet
	facet normal	-0	0	1
		outer loop
			vertex	-0.14576	1.91628	0
			vertex	1.39891	1.3697	0
			vertex	1.415	3.32592	0
		endloop
	endfacet
	facet normal	0	-0	1
		outer loop
			vertex	1.39891	1.3697	0
			vertex	3.41778	3.33136	0
			vertex	1.415	3.32592	0
		endloop
	endfacet
	facet normal	0	0	1
		outer loop
			vertex	3.41778	3.33136	0
			vertex	3.03712	4.65596	0
			vertex	1.415	3.32592	0
		endloop
	endfacet
	facet normal	0	0	1
		outer loop
			vertex	3.03712	4.65596	0
			vertex	0.847611	4.82942	0
			vertex	1.415	3.32592	0
		endloop
	endfacet
	facet normal	0	0	1
		outer loop
			vertex	0.847611	4.82942	0
			vertex	-0.06568	3.8528	0
			vertex	1.415	3.32592	0
		endloop
	endfacet
	facet normal	-0	-0	1
		outer loop
			vertex	5.94423	-0.117947	0
			vertex	7.91508	-0.11795	0
			vertex	6.40245	1.56444	0
		endloop
	endfacet
	facet normal	0	-0	1
		outer loop
			vertex	7.91508	-0.11795	0
			vertex	8.41825	2.43119	0
			vertex	6.40245	1.56444	0
		endloop
	endfacet
	facet normal	0	0	1
		outer loop
			vertex	8.41825	2.43119	0
			vertex	6.29688	3.591	0
			vertex	6.40245	1.56444	0
		endloop
	endfacet
	facet normal	0	0	1
		outer loop
			vertex	6.29688	3.591	0
			vertex	4.90823	2.90749	0
			vertex	6.40245	1.56444	0
		endloop
	endfacet
	facet normal	-0	0	1
		outer loop
			vertex	4.90823	2.90749	0
			vertex	4.93205	0.69284	0
			vertex	6.40245	1.56444	0
		endloop
	endfacet
	facet normal	-0	0	1
		outer loop
			vertex	4.93205	0.69284	0
			vertex	5.94423	-0.117947	0
			vertex	6.40245	1.56444	0
		endloop
	endfacet
	facet normal	0	-0	1
		outer loop
			vertex	10	3.33334	0
			vertex	10	5.55556	0
			vertex	8.35443	4.49421	0
		endloop
	endfacet
	facet normal	0	0	1
		outer loop
			vertex	10	5.55556	0
			vertex	8.77642	6.58485	0
			vertex	8.35443	4.49421	0
		endloop
	endfacet
	facet normal	0	0	1
		outer loop
			vertex	8.77642	6.58485	0
			vertex	6.63505	5.46934	0
			vertex	8.35443	4.49421	0
		endloop
	endfacet
	facet normal	-0	0	1
		outer loop
			vertex	6.63505	5.46934	0
			vertex	6.29688	3.591	0
			vertex	8.35443	4.49421	0
		endloop
	endfacet
	facet normal	-0	-0	1
		outer loop
			vertex	6.29688	3.591	0
			vertex	8.41825	2.43119	0
			vertex	8.35443	4.49421	0
		endloop
	endfacet
	facet normal	0	-0	1
		outer loop
			vertex	8.41825	2.43119	0
			vertex	10	3.33334	0
			vertex	8.35443	4.49421	0
		endloop
	endfacet
	facet normal	-0	-0	1
		outer loop
			vertex	2.00254	-0.11794	0
			vertex	3.97338	-0.117943	0
			vertex	3.43882	1.34425	0
		endloop
	endfacet
	facet normal	0	-0	1
		outer loop
			vertex	3.97338	-0.117943	0
			vertex	4.93205	0.69284	0
			vertex	3.43882	1.34425	0
		endloop
	endfacet
	facet normal	0	0	1
		outer loop
			vertex	4.93205	0.69284	0
			vertex	4.90823	2.90749	0
			vertex	3.43882	1.34425	0
		endloop
	endfacet
	facet normal	0	0	1
		outer loop
			vertex	4.90823	2.90749	0
			vertex	3.41778	3.33136	0
			vertex	3.43882	1.34425	0
		endloop
	endfacet
	facet normal	0	0	1
		outer loop
			vertex	3.41778	3.33136	0
			vertex	1.39891	1.3697	0
			vertex	3.43882	1.34425	0
		endloop
	endfacet
	facet normal	-0	0	1
		outer loop
			vertex	1.39891	1.3697	0
			vertex	2.00254	-0.11794	0
			vertex	3.43882	1.34425	0
		endloop
	endfacet
	facet normal	0	0	1
		outer loop
			vertex	-7.77778	10	0
			vertex	-10	10	0
			vertex	-7.91755	7.87672	0
		endloop
	endfacet
	facet normal	-0	0	1
		outer loop
			vertex	-10	10	0
			vertex	-10	7.77778	0
			vertex	-7.91755	7.87672	0
		endloop
	endfacet
	facet normal	-0	0	1
		outer loop
			vertex	-10	7.77778	0
			vertex	-8.75055	6.42881	0
			vertex	-7.91755	7.87672	0
		endloop
	endfacet
	facet normal	-0	-0	1
		outer loop
			vertex	-8.75055	6.42881	0
			vertex	-6.65641	5.60588	0
			vertex	-7.91755	7.87672	0
		endloop
	endfacet
	facet normal	0	-0	1
		outer loop
			vertex	-6.65641	5.60588	0
			vertex	-5.61062	6.59281	0
			vertex	-7.91755	7.87672	0
		endloop
	endfacet
	facet normal	0	0	1
		outer loop
			vertex	-5.61062	6.59281	0
			vertex	-6.62749	8.73179	0
			vertex	-7.91755	7.87672	0
		endloop
	endfacet
	facet normal	0	0	1
		outer loop
			vertex	-6.62749	8.73179	0
			vertex	-7.77778	10	0
			vertex	-7.91755	7.87672	0
		endloop
	endfacet
	facet normal	-0	0	1
		outer loop
			vertex	-10	5.55556	0
			vertex	-10	3.33334	0
			vertex	-8.41042	4.54035	0
		endloop
	endfacet
	facet normal	-0	0	1
		outer loop
			vertex	-10	3.33334	0
			vertex	-8.73099	2.49392	0
			vertex	-8.41042	4.54035	0
		endloop
	endfacet
	facet normal	0	-0	1
		outer loop
			vertex	-8.73099	2.49392	0
			vertex	-6.32459	3.82463	0
			vertex	-8.41042	4.54035	0
		endloop
	endfacet
	facet normal	0	0	1
		outer loop
			vertex	-6.32459	3.82463	0
			vertex	-6.65641	5.60588	0
			vertex	-8.41042	4.54035	0
		endloop
	endfacet
	facet normal	0	0	1
		outer loop
			vertex	-6.65641	5.60588	0
			vertex	-8.75055	6.42881	0
			vertex	-8.41042	4.54035	0
		endloop
	endfacet
	facet normal	0	0	1
		outer loop
			vertex	-8.75055	6.42881	0
			vertex	-10	5.55556	0
			vertex	-8.41042	4.54035	0
		endloop
	endfacet
	facet normal	-0	-0	1
		outer loop
			vertex	-8.24461	-0.00388	0
			vertex	-6.26109	-0.03556	0
			vertex	-6.62894	1.68606	0
		endloop
	endfacet
	facet normal	0	-0	1
		outer loop
			vertex	-6.26109	-0.03556	0
			vertex	-5.24563	0.830163	0
			vertex	-6.62894	1.68606	0
		endloop
	endfacet
	facet normal	0	-0	1
		outer loop
			vertex	-5.24563	0.830163	0
			vertex	-4.9667	3.00708	0
			vertex	-6.62894	1.68606	0
		endloop
	endfacet
	facet normal	0	0	1
		outer loop
			vertex	-4.9667	3.00708	0
			vertex	-6.32459	3.82463	0
			vertex	-6.62894	1.68606	0
		endloop
	endfacet
	facet normal	0	0	1
		outer loop
			vertex	-6.32459	3.82463	0
			vertex	-8.73099	2.49392	0
			vertex	-6.62894	1.68606	0
		endloop
	endfacet
	facet normal	-0	0	1
		outer loop
			vertex	-8.73099	2.49392	0
			vertex	-8.24461	-0.00388	0
			vertex	-6.62894	1.68606	0
		endloop
	endfacet
	facet normal	-0	-0	1
		outer loop
			vertex	-4.27756	-0.06724	0
			vertex	-2.29404	-0.09892	0
			vertex	-3.69336	1.40828	0
		endloop
	endfacet
	facet normal	0	-0	1
		outer loop
			vertex	-2.29404	-0.09892	0
			vertex	-1.75697	1.40296	0
			vertex	-3.69336	1.40828	0
		endloop
	endfacet
	facet normal	0	0	1
		outer loop
			vertex	-1.75697	1.40296	0
			vertex	-3.61925	3.37566	0
			vertex	-3.69336	1.40828	0
		endloop
	endfacet
	facet normal	0	0	1
		outer loop
			vertex	-3.61925	3.37566	0
			vertex	-4.9667	3.00708	0
			vertex	-3.69336	1.40828	0
		endloop
	endfacet
	facet normal	-0	0	1
		outer loop
			vertex	-4.9667	3.00708	0
			vertex	-5.24563	0.830163	0
			vertex	-3.69336	1.40828	0
		endloop
	endfacet
	facet normal	-0	0	1
		outer loop
			vertex	-5.24563	0.830163	0
			vertex	-4.27756	-0.06724	0
			vertex	-3.69336	1.40828	0
		endloop
	endfacet
	facet normal	0	-0	1
		outer loop
			vertex	0.0144	5.78933	0
			vertex	0.09448	7.72585	0
			vertex	-1.68711	6.29766	0
		endloop
	endfacet
	facet normal	0	0	1
		outer loop
			vertex	0.09448	7.72585	0
			vertex	-2.46814	8.31165	0
			vertex	-1.68711	6.29766	0
		endloop
	endfacet
	facet normal	-0	0	1
		outer loop
			vertex	-2.46814	8.31165	0
			vertex	-3.7419	6.24193	0
			vertex	-1.68711	6.29766	0
		endloop
	endfacet
	facet normal	-0	0	1
		outer loop
			vertex	-3.7419	6.24193	0
			vertex	-3.12251	4.85521	0
			vertex	-1.68711	6.29766	0
		endloop
	endfacet
	facet normal	0	-0	1
		outer loop
			vertex	-3.12251	4.85521	0
			vertex	-0.898988	4.862	0
			vertex	-1.68711	6.29766	0
		endloop
	endfacet
	facet normal	0	-0	1
		outer loop
			vertex	-0.898988	4.862	0
			vertex	0.0144	5.78933	0
			vertex	-1.68711	6.29766	0
		endloop
	endfacet
	facet normal	0	0	1
		outer loop
			vertex	-3.33334	10	0
			vertex	-5.55556	10	0
			vertex	-4.55617	8.31303	0
		endloop
	endfacet
	facet normal	0	0	1
		outer loop
			vertex	-5.55556	10	0
			vertex	-6.62749	8.73179	0
			vertex	-4.55617	8.31303	0
		endloop
	endfacet
	facet normal	-0	0	1
		outer loop
			vertex	-6.62749	8.73179	0
			vertex	-5.61062	6.59281	0
			vertex	-4.55617	8.31303	0
		endloop
	endfacet
	facet normal	-0	-0	1
		outer loop
			vertex	-5.61062	6.59281	0
			vertex	-3.7419	6.24193	0
			vertex	-4.55617	8.31303	0
		endloop
	endfacet
	facet normal	0	-0	1
		outer loop
			vertex	-3.7419	6.24193	0
			vertex	-2.46814	8.31165	0
			vertex	-4.55617	8.31303	0
		endloop
	endfacet
	facet normal	0	0	1
		outer loop
			vertex	-2.46814	8.31165	0
			vertex	-3.33334	10	0
			vertex	-4.55617	8.31303	0
		endloop
	endfacet
	facet normal	0	-0	1
		outer loop
			vertex	-0.14576	1.91628	0
			vertex	-0.06568	3.8528	0
			vertex	-1.60153	3.37749	0
		endloop
	endfacet
	facet normal	0	0	1
		outer loop
			vertex	-0.06568	3.8528	0
			vertex	-0.898988	4.862	0
			vertex	-1.60153	3.37749	0
		endloop
	endfacet
	facet normal	0	0	1
		outer loop
			vertex	-0.898988	4.862	0
			vertex	-3.12251	4.85521	0
			vertex	-1.60153	3.37749	0
		endloop
	endfacet
	facet normal	-0	0	1
		outer loop
			vertex	-3.12251	4.85521	0
			vertex	-3.61925	3.37566	0
			vertex	-1.60153	3.37749	0
		endloop
	endfacet
	facet normal	-0	0	1
		outer loop
			vertex	-3.61925	3.37566	0
			vertex	-1.75697	1.40296	0
			vertex	-1.60153	3.37749	0
		endloop
	endfacet
	facet normal	0	-0	1
		outer loop
			vertex	-1.75697	1.40296	0
			vertex	-0.14576	1.91628	0
			vertex	-1.60153	3.37749	0
		endloop
	endfacet
	facet normal	-0	0	1
		outer loop
			vertex	-10	-7.77778	0
			vertex	-10	-10	0
			vertex	-7.93041	-7.90161	0
		endloop
	endfacet
	facet normal	0	-0	1
		outer loop
			vertex	-10	-10	0
			vertex	-7.77778	-10	0
			vertex	-7.93041	-7.90161	0
		endloop
	endfacet
	facet normal	0	-0	1
		outer loop
			vertex	-7.77778	-10	0
			vertex	-6.4326	-8.69405	0
			vertex	-7.93041	-7.90161	0
		endloop
	endfacet
	facet normal	0	-0	1
		outer loop
			vertex	-6.4326	-8.69405	0
			vertex	-5.69877	-6.63058	0
			vertex	-7.93041	-7.90161	0
		endloop
	endfacet
	facet normal	0	0	1
		outer loop
			vertex	-5.69877	-6.63058	0
			vertex	-6.74488	-5.60217	0
			vertex	-7.93041	-7.90161	0
		endloop
	endfacet
	facet normal	0	0	1
		outer loop
			vertex	-6.74488	-5.60217	0
			vertex	-8.85885	-6.60669	0
			vertex	-7.93041	-7.90161	0
		endloop
	endfacet
	facet normal	0	0	1
		outer loop
			vertex	-8.85885	-6.60669	0
			vertex	-10	-7.77778	0
			vertex	-7.93041	-7.90161	0
		endloop
	endfacet
	facet normal	0	-0	1
		outer loop
			vertex	-5.55556	-10	0
			vertex	-3.33334	-10	0
			vertex	-4.56236	-8.37032	0
		endloop
	endfacet
	facet normal	0	-0	1
		outer loop
			vertex	-3.33334	-10	0
			vertex	-2.43981	-8.59606	0
			vertex	-4.56236	-8.37032	0
		endloop
	endfacet
	facet normal	0	0	1
		outer loop
			vertex	-2.43981	-8.59606	0
			vertex	-3.91407	-6.30124	0
			vertex	-4.56236	-8.37032	0
		endloop
	endfacet
	facet normal	0	0	1
		outer loop
			vertex	-3.91407	-6.30124	0
			vertex	-5.69877	-6.63058	0
			vertex	-4.56236	-8.37032	0
		endloop
	endfacet
	facet normal	-0	0	1
		outer loop
			vertex	-5.69877	-6.63058	0
			vertex	-6.4326	-8.69405	0
			vertex	-4.56236	-8.37032	0
		endloop
	endfacet
	facet normal	-0	0	1
		outer loop
			vertex	-6.4326	-8.69405	0
			vertex	-5.55556	-10	0
			vertex	-4.56236	-8.37032	0
		endloop
	endfacet
	facet normal	0	0	1
		outer loop
			vertex	0.06336	-8.10273	0
			vertex	0.038013	-6.22694	0
			vertex	-1.72358	-6.5707	0
		endloop
	endfacet
	facet normal	0	0	1
		outer loop
			vertex	0.038013	-6.22694	0
			vertex	-0.937829	-5.2344	0
			vertex	-1.72358	-6.5707	0
		endloop
	endfacet
	facet normal	0	0	1
		outer loop
			vertex	-0.937829	-5.2344	0
			vertex	-3.15116	-4.96284	0
			vertex	-1.72358	-6.5707	0
		endloop
	endfacet
	facet normal	0	0	1
		outer loop
			vertex	-3.15116	-4.96284	0
			vertex	-3.91407	-6.30124	0
			vertex	-1.72358	-6.5707	0
		endloop
	endfacet
	facet normal	-0	0	1
		outer loop
			vertex	-3.91407	-6.30124	0
			vertex	-2.43981	-8.59606	0
			vertex	-1.72358	-6.5707	0
		endloop
	endfacet
	facet normal	0	-0	1
		outer loop
			vertex	-2.43981	-8.59606	0
			vertex	0.06336	-8.10273	0
			vertex	-1.72358	-6.5707	0
		endloop
	endfacet
	facet normal	0	0	1
		outer loop
			vertex	0.012667	-4.35115	0
			vertex	-0.01268	-2.47536	0
			vertex	-1.56022	-3.75215	0
		endloop
	endfacet
	facet normal	0	0	1
		outer loop
			vertex	-0.01268	-2.47536	0
			vertex	-1.68568	-1.85273	0
			vertex	-1.56022	-3.75215	0
		endloop
	endfacet
	facet normal	0	0	1
		outer loop
			vertex	-1.68568	-1.85273	0
			vertex	-3.58664	-3.63642	0
			vertex	-1.56022	-3.75215	0
		endloop
	endfacet
	facet normal	-0	0	1
		outer loop
			vertex	-3.58664	-3.63642	0
			vertex	-3.15116	-4.96284	0
			vertex	-1.56022	-3.75215	0
		endloop
	endfacet
	facet normal	-0	-0	1
		outer loop
			vertex	-3.15116	-4.96284	0
			vertex	-0.937829	-5.2344	0
			vertex	-1.56022	-3.75215	0
		endloop
	endfacet
	facet normal	0	-0	1
		outer loop
			vertex	-0.937829	-5.2344	0
			vertex	0.012667	-4.35115	0
			vertex	-1.56022	-3.75215	0
		endloop
	endfacet
	facet normal	0	0	1
		outer loop
			vertex	-6.26109	-0.03556	0
			vertex	-8.24461	-0.00388	0
			vertex	-6.66632	-1.73334	0
		endloop
	endfacet
	facet normal	-0	0	1
		outer loop
			vertex	-8.24461	-0.00388	0
			vertex	-8.69297	-2.49024	0
			vertex	-6.66632	-1.73334	0
		endloop
	endfacet
	facet normal	-0	-0	1
		outer loop
			vertex	-8.69297	-2.49024	0
			vertex	-6.47797	-3.76132	0
			vertex	-6.66632	-1.73334	0
		endloop
	endfacet
	facet normal	0	-0	1
		outer loop
			vertex	-6.47797	-3.76132	0
			vertex	-5.10528	-3.14936	0
			vertex	-6.66632	-1.73334	0
		endloop
	endfacet
	facet normal	0	0	1
		outer loop
			vertex	-5.10528	-3.14936	0
			vertex	-5.216	-0.959697	0
			vertex	-6.66632	-1.73334	0
		endloop
	endfacet
	facet normal	0	0	1
		outer loop
			vertex	-5.216	-0.959697	0
			vertex	-6.26109	-0.03556	0
			vertex	-6.66632	-1.73334	0
		endloop
	endfacet
	facet normal	-0	0	1
		outer loop
			vertex	-10	-3.33334	0
			vertex	-10	-5.55556	0
			vertex	-8.46244	-4.55822	0
		endloop
	endfacet
	facet normal	-0	0	1
		outer loop
			vertex	-10	-5.55556	0
			vertex	-8.85885	-6.60669	0
			vertex	-8.46244	-4.55822	0
		endloop
	endfacet
	facet normal	0	-0	1
		outer loop
			vertex	-8.85885	-6.60669	0
			vertex	-6.74488	-5.60217	0
			vertex	-8.46244	-4.55822	0
		endloop
	endfacet
	facet normal	0	-0	1
		outer loop
			vertex	-6.74488	-5.60217	0
			vertex	-6.47797	-3.76132	0
			vertex	-8.46244	-4.55822	0
		endloop
	endfacet
	facet normal	0	0	1
		outer loop
			vertex	-6.47797	-3.76132	0
			vertex	-8.69297	-2.49024	0
			vertex	-8.46244	-4.55822	0
		endloop
	endfacet
	facet normal	0	0	1
		outer loop
			vertex	-8.69297	-2.49024	0
			vertex	-10	-3.33334	0
			vertex	-8.46244	-4.55822	0
		endloop
	endfacet
	facet normal	0	0	1
		outer loop
			vertex	-2.29404	-0.09892	0
			vertex	-4.27756	-0.06724	0
			vertex	-3.6942	-1.6274	0
		endloop
	endfacet
	facet normal	0	0	1
		outer loop
			vertex	-4.27756	-0.06724	0
			vertex	-5.216	-0.959697	0
			vertex	-3.6942	-1.6274	0
		endloop
	endfacet
	facet normal	-0	0	1
		outer loop
			vertex	-5.216	-0.959697	0
			vertex	-5.10528	-3.14936	0
			vertex	-3.6942	-1.6274	0
		endloop
	endfacet
	facet normal	-0	-0	1
		outer loop
			vertex	-5.10528	-3.14936	0
			vertex	-3.58664	-3.63642	0
			vertex	-3.6942	-1.6274	0
		endloop
	endfacet
	facet normal	0	-0	1
		outer loop
			vertex	-3.58664	-3.63642	0
			vertex	-1.68568	-1.85273	0
			vertex	-3.6942	-1.6274	0
		endloop
	endfacet
	facet normal	0	0	1
		outer loop
			vertex	-1.68568	-1.85273	0
			vertex	-2.29404	-0.09892	0
			vertex	-3.6942	-1.6274	0
		endloop
	endfacet
endsolid /home/boris/Bureau/rawad/c2_c2_c2_c2___c2/iter2.stl
