solid /home/boris/Bureau/rawad/c2_c2_c2_c2___c2/iter0.stl
	facet normal	0	-0	1
		outer loop
			vertex	-10	-10	0
			vertex	10	-10	0
			vertex	0	0	0
		endloop
	endfacet
	facet normal	0	-0	1
		outer loop
			vertex	10	-10	0
			vertex	10	10	0
			vertex	0	0	0
		endloop
	endfacet
	facet normal	0	0	1
		outer loop
			vertex	10	10	0
			vertex	-10	10	0
			vertex	0	0	0
		endloop
	endfacet
	facet normal	-0	0	1
		outer loop
			vertex	-10	10	0
			vertex	-10	-10	0
			vertex	0	0	0
		endloop
	endfacet
endsolid /home/boris/Bureau/rawad/c2_c2_c2_c2___c2/iter0.stl
