solid /home/boris/Bureau/rawad/c2_c2_c2_c2___c2/iter1.stl
	facet normal	0	-0	-1
		outer loop
			vertex	1.66667	10	0
			vertex	5	10	0
			vertex	2.69913	6.96675	0
		endloop
	endfacet
	facet normal	-0	-0	-1
		outer loop
			vertex	5	10	0
			vertex	6.25	6.25	0
			vertex	2.69913	6.96675	0
		endloop
	endfacet
	facet normal	-0	0	-1
		outer loop
			vertex	6.25	6.25	0
			vertex	3.24703	3.19349	0
			vertex	2.69913	6.96675	0
		endloop
	endfacet
	facet normal	0	0	-1
		outer loop
			vertex	3.24703	3.19349	0
			vertex	0.070322	4.04243	0
			vertex	2.69913	6.96675	0
		endloop
	endfacet
	facet normal	0	0	-1
		outer loop
			vertex	0.070322	4.04243	0
			vertex	-0.03921	8.31456	0
			vertex	2.69913	6.96675	0
		endloop
	endfacet
	facet normal	0	0	-1
		outer loop
			vertex	-0.03921	8.31456	0
			vertex	1.66667	10	0
			vertex	2.69913	6.96675	0
		endloop
	endfacet
	facet normal	-0	-0	-1
		outer loop
			vertex	10	5	0
			vertex	10	1.66667	0
			vertex	6.99351	2.6678	0
		endloop
	endfacet
	facet normal	-0	0	-1
		outer loop
			vertex	10	1.66667	0
			vertex	8.20378	-0.120129	0
			vertex	6.99351	2.6678	0
		endloop
	endfacet
	facet normal	0	0	-1
		outer loop
			vertex	8.20378	-0.120129	0
			vertex	4.26028	0.016794	0
			vertex	6.99351	2.6678	0
		endloop
	endfacet
	facet normal	0	0	-1
		outer loop
			vertex	4.26028	0.016794	0
			vertex	3.24703	3.19349	0
			vertex	6.99351	2.6678	0
		endloop
	endfacet
	facet normal	0	0	-1
		outer loop
			vertex	3.24703	3.19349	0
			vertex	6.25	6.25	0
			vertex	6.99351	2.6678	0
		endloop
	endfacet
	facet normal	0	-0	-1
		outer loop
			vertex	6.25	6.25	0
			vertex	10	5	0
			vertex	6.99351	2.6678	0
		endloop
	endfacet
	facet normal	-0	-0	-1
		outer loop
			vertex	10	-1.66667	0
			vertex	10	-5	0
			vertex	6.96613	-2.70578	0
		endloop
	endfacet
	facet normal	-0	0	-1
		outer loop
			vertex	10	-5	0
			vertex	6.25	-6.25	0
			vertex	6.96613	-2.70578	0
		endloop
	endfacet
	facet normal	0	0	-1
		outer loop
			vertex	6.25	-6.25	0
			vertex	3.08271	-3.21468	0
			vertex	6.96613	-2.70578	0
		endloop
	endfacet
	facet normal	0	0	-1
		outer loop
			vertex	3.08271	-3.21468	0
			vertex	4.26028	0.016794	0
			vertex	6.96613	-2.70578	0
		endloop
	endfacet
	facet normal	0	-0	-1
		outer loop
			vertex	4.26028	0.016794	0
			vertex	8.20378	-0.120129	0
			vertex	6.96613	-2.70578	0
		endloop
	endfacet
	facet normal	0	-0	-1
		outer loop
			vertex	8.20378	-0.120129	0
			vertex	10	-1.66667	0
			vertex	6.96613	-2.70578	0
		endloop
	endfacet
	facet normal	0	0	-1
		outer loop
			vertex	5	-10	0
			vertex	1.66667	-10	0
			vertex	2.63067	-7.01386	0
		endloop
	endfacet
	facet normal	0	0	-1
		outer loop
			vertex	1.66667	-10	0
			vertex	-0.093991	-8.30836	0
			vertex	2.63067	-7.01386	0
		endloop
	endfacet
	facet normal	0	0	-1
		outer loop
			vertex	-0.093991	-8.30836	0
			vertex	-0.121378	-4.3101	0
			vertex	2.63067	-7.01386	0
		endloop
	endfacet
	facet normal	0	-0	-1
		outer loop
			vertex	-0.121378	-4.3101	0
			vertex	3.08271	-3.21468	0
			vertex	2.63067	-7.01386	0
		endloop
	endfacet
	facet normal	0	-0	-1
		outer loop
			vertex	3.08271	-3.21468	0
			vertex	6.25	-6.25	0
			vertex	2.63067	-7.01386	0
		endloop
	endfacet
	facet normal	-0	0	-1
		outer loop
			vertex	6.25	-6.25	0
			vertex	5	-10	0
			vertex	2.63067	-7.01386	0
		endloop
	endfacet
	facet normal	0	0	-1
		outer loop
			vertex	-1.66667	-10	0
			vertex	-5	-10	0
			vertex	-2.7064	-6.98191	0
		endloop
	endfacet
	facet normal	0	0	-1
		outer loop
			vertex	-5	-10	0
			vertex	-6.25	-6.25	0
			vertex	-2.7064	-6.98191	0
		endloop
	endfacet
	facet normal	0	0	-1
		outer loop
			vertex	-6.25	-6.25	0
			vertex	-3.10638	-3.02299	0
			vertex	-2.7064	-6.98191	0
		endloop
	endfacet
	facet normal	0	-0	-1
		outer loop
			vertex	-3.10638	-3.02299	0
			vertex	-0.121378	-4.3101	0
			vertex	-2.7064	-6.98191	0
		endloop
	endfacet
	facet normal	-0	-0	-1
		outer loop
			vertex	-0.121378	-4.3101	0
			vertex	-0.093991	-8.30836	0
			vertex	-2.7064	-6.98191	0
		endloop
	endfacet
	facet normal	-0	0	-1
		outer loop
			vertex	-0.093991	-8.30836	0
			vertex	-1.66667	-10	0
			vertex	-2.7064	-6.98191	0
		endloop
	endfacet
	facet normal	0	0	-1
		outer loop
			vertex	-10	-5	0
			vertex	-10	-1.66667	0
			vertex	-7.01904	-2.66471	0
		endloop
	endfacet
	facet normal	0	0	-1
		outer loop
			vertex	-10	-1.66667	0
			vertex	-8.39176	-0.010593	0
			vertex	-7.01904	-2.66471	0
		endloop
	endfacet
	facet normal	0	-0	-1
		outer loop
			vertex	-8.39176	-0.010593	0
			vertex	-4.36611	-0.03798	0
			vertex	-7.01904	-2.66471	0
		endloop
	endfacet
	facet normal	-0	-0	-1
		outer loop
			vertex	-4.36611	-0.03798	0
			vertex	-3.10638	-3.02299	0
			vertex	-7.01904	-2.66471	0
		endloop
	endfacet
	facet normal	-0	0	-1
		outer loop
			vertex	-3.10638	-3.02299	0
			vertex	-6.25	-6.25	0
			vertex	-7.01904	-2.66471	0
		endloop
	endfacet
	facet normal	0	0	-1
		outer loop
			vertex	-6.25	-6.25	0
			vertex	-10	-5	0
			vertex	-7.01904	-2.66471	0
		endloop
	endfacet
	facet normal	0	0	-1
		outer loop
			vertex	-10	1.66667	0
			vertex	-10	5	0
			vertex	-7.01448	2.65411	0
		endloop
	endfacet
	facet normal	0	-0	-1
		outer loop
			vertex	-10	5	0
			vertex	-6.25	6.25	0
			vertex	-7.01448	2.65411	0
		endloop
	endfacet
	facet normal	0	-0	-1
		outer loop
			vertex	-6.25	6.25	0
			vertex	-3.079	3.05656	0
			vertex	-7.01448	2.65411	0
		endloop
	endfacet
	facet normal	-0	0	-1
		outer loop
			vertex	-3.079	3.05656	0
			vertex	-4.36611	-0.03798	0
			vertex	-7.01448	2.65411	0
		endloop
	endfacet
	facet normal	0	0	-1
		outer loop
			vertex	-4.36611	-0.03798	0
			vertex	-8.39176	-0.010593	0
			vertex	-7.01448	2.65411	0
		endloop
	endfacet
	facet normal	0	0	-1
		outer loop
			vertex	-8.39176	-0.010593	0
			vertex	-10	1.66667	0
			vertex	-7.01448	2.65411	0
		endloop
	endfacet
	facet normal	0	-0	-1
		outer loop
			vertex	-5	10	0
			vertex	-1.66667	10	0
			vertex	-2.66076	6.94393	0
		endloop
	endfacet
	facet normal	0	-0	-1
		outer loop
			vertex	-1.66667	10	0
			vertex	-0.03921	8.31456	0
			vertex	-2.66076	6.94393	0
		endloop
	endfacet
	facet normal	-0	-0	-1
		outer loop
			vertex	-0.03921	8.31456	0
			vertex	0.070322	4.04243	0
			vertex	-2.66076	6.94393	0
		endloop
	endfacet
	facet normal	-0	0	-1
		outer loop
			vertex	0.070322	4.04243	0
			vertex	-3.079	3.05656	0
			vertex	-2.66076	6.94393	0
		endloop
	endfacet
	facet normal	0	0	-1
		outer loop
			vertex	-3.079	3.05656	0
			vertex	-6.25	6.25	0
			vertex	-2.66076	6.94393	0
		endloop
	endfacet
	facet normal	0	0	-1
		outer loop
			vertex	-6.25	6.25	0
			vertex	-5	10	0
			vertex	-2.66076	6.94393	0
		endloop
	endfacet
endsolid /home/boris/Bureau/rawad/c2_c2_c2_c2___c2/iter1.stl
